<svg xmlns="http://www.w3.org/2000/svg" viewBox="0 0 800 450" width="800" height="450"><defs><linearGradient id="g" x1="0" y1="0" x2="1" y2="1"><stop offset="0" stop-color="#12305F"/><stop offset="1" stop-color="#1C7CE0"/></linearGradient></defs><rect width="800" height="450" fill="url(#g)"/><path d="M150 300 C 120 220, 200 120, 300 110 C 380 100, 430 60, 520 90 C 620 120, 690 180, 660 260 C 640 330, 560 370, 470 360 C 380 350, 330 390, 250 370 C 190 355, 165 330, 150 300 Z" fill="#fff" fill-opacity=".10" stroke="#fff" stroke-opacity=".45" stroke-width="3"/><circle cx="300" cy="220" r="90" fill="#fff" opacity=".08"/><circle cx="520" cy="170" r="70" fill="#fff" opacity=".08"/><circle cx="282" cy="221" r="6" fill="#fff" opacity="0.70"/><circle cx="394" cy="189" r="6" fill="#fff" opacity="0.56"/><circle cx="250" cy="214" r="6" fill="#fff" opacity="0.65"/><circle cx="225" cy="237" r="8" fill="#fff" opacity="0.86"/><circle cx="304" cy="238" r="5" fill="#fff" opacity="0.70"/><circle cx="321" cy="217" r="6" fill="#fff" opacity="0.58"/><circle cx="332" cy="176" r="5" fill="#fff" opacity="0.65"/><circle cx="354" cy="165" r="8" fill="#fff" opacity="0.58"/><circle cx="367" cy="248" r="8" fill="#fff" opacity="0.69"/><circle cx="323" cy="220" r="6" fill="#fff" opacity="0.68"/><circle cx="289" cy="216" r="8" fill="#fff" opacity="0.57"/><circle cx="275" cy="141" r="8" fill="#fff" opacity="0.84"/><circle cx="261" cy="192" r="6" fill="#fff" opacity="0.92"/><circle cx="229" cy="241" r="6" fill="#fff" opacity="0.55"/><circle cx="331" cy="236" r="8" fill="#fff" opacity="0.92"/><circle cx="328" cy="213" r="8" fill="#fff" opacity="0.93"/><circle cx="295" cy="276" r="5" fill="#fff" opacity="0.56"/><circle cx="356" cy="220" r="5" fill="#fff" opacity="0.59"/><circle cx="336" cy="219" r="8" fill="#fff" opacity="0.93"/><circle cx="265" cy="275" r="6" fill="#fff" opacity="0.87"/><circle cx="303" cy="258" r="6" fill="#fff" opacity="0.88"/><circle cx="290" cy="218" r="5" fill="#fff" opacity="0.92"/><circle cx="245" cy="244" r="5" fill="#fff" opacity="0.55"/><circle cx="328" cy="227" r="8" fill="#fff" opacity="0.67"/><circle cx="349" cy="190" r="8" fill="#fff" opacity="0.86"/><circle cx="328" cy="231" r="8" fill="#fff" opacity="0.64"/><circle cx="490" cy="181" r="6" fill="#fff" opacity="0.73"/><circle cx="466" cy="172" r="8" fill="#fff" opacity="0.58"/><circle cx="513" cy="147" r="5" fill="#fff" opacity="0.71"/><circle cx="517" cy="172" r="5" fill="#fff" opacity="0.65"/><circle cx="502" cy="216" r="5" fill="#fff" opacity="0.81"/><circle cx="557" cy="182" r="6" fill="#fff" opacity="0.77"/><circle cx="538" cy="210" r="6" fill="#fff" opacity="0.61"/><circle cx="534" cy="196" r="6" fill="#fff" opacity="0.90"/><circle cx="513" cy="221" r="5" fill="#fff" opacity="0.66"/><circle cx="558" cy="192" r="5" fill="#fff" opacity="0.63"/><circle cx="463" cy="137" r="6" fill="#fff" opacity="0.75"/><circle cx="443" cy="175" r="8" fill="#fff" opacity="0.94"/><circle cx="564" cy="181" r="5" fill="#fff" opacity="0.64"/><circle cx="530" cy="166" r="6" fill="#fff" opacity="0.73"/><circle cx="567" cy="175" r="8" fill="#fff" opacity="0.64"/><circle cx="473" cy="190" r="8" fill="#fff" opacity="0.89"/><circle cx="535" cy="195" r="8" fill="#fff" opacity="0.85"/><circle cx="513" cy="149" r="6" fill="#fff" opacity="0.67"/><circle cx="479" cy="306" r="8" fill="#fff" opacity="0.66"/><circle cx="480" cy="312" r="6" fill="#fff" opacity="0.85"/><circle cx="449" cy="279" r="5" fill="#fff" opacity="0.73"/><circle cx="445" cy="304" r="5" fill="#fff" opacity="0.65"/><circle cx="461" cy="260" r="5" fill="#fff" opacity="0.66"/><circle cx="502" cy="298" r="8" fill="#fff" opacity="0.63"/><circle cx="479" cy="305" r="5" fill="#fff" opacity="0.71"/><circle cx="497" cy="311" r="5" fill="#fff" opacity="0.75"/><circle cx="499" cy="282" r="5" fill="#fff" opacity="0.81"/><circle cx="472" cy="279" r="5" fill="#fff" opacity="0.81"/><circle cx="473" cy="282" r="5" fill="#fff" opacity="0.59"/><circle cx="474" cy="292" r="6" fill="#fff" opacity="0.90"/><circle cx="465" cy="287" r="5" fill="#fff" opacity="0.89"/><circle cx="438" cy="294" r="6" fill="#fff" opacity="0.57"/></svg>